<?xml version="1.0" encoding="utf-8"?>
<!-- Generator: Adobe Illustrator 22.1.0, SVG Export Plug-In . SVG Version: 6.00 Build 0)  -->
<svg version="1.1" id="레이어_1" xmlns="http://www.w3.org/2000/svg" xmlns:xlink="http://www.w3.org/1999/xlink" x="0px"
	 y="0px" viewBox="0 0 100 100" style="enable-background:new 0 0 100 100;" xml:space="preserve">
<g>
	<g>
		<path d="M85.5,0H13.7c-2.3,0-4.2,1.9-4.2,4.2v91.5c0,2.3,1.9,4.2,4.2,4.2h72.7c2.3,0,4.2-1.9,4.2-4.2V37L90.5,5
			C90.5,2.3,88.3,0,85.5,0z M68.5,52.9H31.2c-3,0-5.3-1.9-5.3-4.2c0-2.3,2.3-4.2,5.3-4.2h37.5c3,0,5.3,1.9,5.3,4.2
			C74.1,51,71.5,52.9,68.5,52.9z M68.5,73.2H31.2c-3,0-5.3-1.9-5.3-4.2c0-2.3,2.3-4.2,5.3-4.2h37.5c3,0,5.3,1.9,5.3,4.2
			C74.1,71.3,71.5,73.2,68.5,73.2z M68.5,33.2H31.2c-3,0-5.3-1.9-5.3-4.2s2.3-4.2,5.3-4.2h37.5c3,0,5.3,1.9,5.3,4.2
			S71.5,33.2,68.5,33.2z"/>
	</g>
</g>
</svg>
