<?xml version="1.0" encoding="utf-8"?>
<!-- Generator: Adobe Illustrator 22.1.0, SVG Export Plug-In . SVG Version: 6.00 Build 0)  -->
<svg version="1.1" id="레이어_1" xmlns="http://www.w3.org/2000/svg" xmlns:xlink="http://www.w3.org/1999/xlink" x="0px"
	 y="0px" viewBox="0 0 100 100" style="enable-background:new 0 0 100 100;" xml:space="preserve">
<path d="M68.5,26L90.3,3.4C90.9,2.8,91,2,90.7,1.2c-0.3-0.7-1-1.2-1.8-1.2H11.1c-1.1,0-2,0.9-2,2v48v48c0,1.1,0.9,2,2,2s2-0.9,2-2
	V52h75.8c0.8,0,1.5-0.5,1.8-1.2c0.3-0.7,0.2-1.6-0.4-2.2L68.5,26z M13.1,48V4h71L64.2,24.6c-0.8,0.8-0.8,2,0,2.8L84.2,48H13.1z"/>
</svg>
