<?xml version="1.0" encoding="utf-8"?>
<!-- Generator: Adobe Illustrator 22.1.0, SVG Export Plug-In . SVG Version: 6.00 Build 0)  -->
<svg version="1.1" id="레이어_1" xmlns="http://www.w3.org/2000/svg" xmlns:xlink="http://www.w3.org/1999/xlink" x="0px"
	 y="0px" viewBox="0 0 100 100" style="enable-background:new 0 0 100 100;" xml:space="preserve">
<g>
	<path d="M78.3,28.5c-7.8,0-14.2-6.4-14.2-14.2S70.5,0,78.3,0s14.2,6.4,14.2,14.2S86.1,28.5,78.3,28.5z M78.3,4
		c-5.6,0-10.2,4.6-10.2,10.2s4.6,10.2,10.2,10.2s10.2-4.6,10.2-10.2S83.9,4,78.3,4z"/>
	<path d="M78.3,61.2c-7.8,0-14.2-6.4-14.2-14.2c0-7.8,6.4-14.2,14.2-14.2s14.2,6.4,14.2,14.2C92.5,54.8,86.1,61.2,78.3,61.2z
		 M78.3,36.7c-5.6,0-10.2,4.6-10.2,10.2c0,5.6,4.6,10.2,10.2,10.2s10.2-4.6,10.2-10.2C88.5,41.3,83.9,36.7,78.3,36.7z"/>
	<path d="M22.1,29.3c-8.1,0-14.6-6.6-14.6-14.7C7.5,6.6,14.1,0,22.1,0s14.6,6.6,14.6,14.7C36.7,22.7,30.2,29.3,22.1,29.3z M22.1,4
		c-5.9,0-10.6,4.8-10.6,10.7c0,5.9,4.8,10.7,10.6,10.7s10.6-4.8,10.6-10.7C32.7,8.8,28,4,22.1,4z"/>
	<path d="M21.7,100c-7.8,0-14.2-6.4-14.2-14.2s6.4-14.2,14.2-14.2c7.8,0,14.2,6.4,14.2,14.2S29.5,100,21.7,100z M21.7,75.5
		c-5.6,0-10.2,4.6-10.2,10.2S16.1,96,21.7,96c5.6,0,10.2-4.6,10.2-10.2S27.3,75.5,21.7,75.5z"/>
	<path d="M21.5,73.2c-1.1,0-2-0.9-2-2V30.1c0-1.1,0.9-2,2-2s2,0.9,2,2v41.1C23.5,72.3,22.6,73.2,21.5,73.2z"/>
	<g>
		<path d="M64.5,17H42.8c-1.1,0-2-0.9-2-2s0.9-2,2-2h21.7c1.1,0,2,0.9,2,2S65.6,17,64.5,17z"/>
		<g>
			<polygon points="43.8,7.8 43.8,22.3 36.5,15 			"/>
		</g>
	</g>
	<path d="M78.5,36.1c-1.1,0-2-0.9-2-2v-6c0-1.1,0.9-2,2-2s2,0.9,2,2v6C80.5,35.2,79.6,36.1,78.5,36.1z"/>
	<path d="M66.5,88.3h-32c-1.1,0-2-0.9-2-2s0.9-2,2-2h32c5.5,0,10-4.5,10-10v-15c0-1.1,0.9-2,2-2s2,0.9,2,2v15
		C80.5,82,74.2,88.3,66.5,88.3z"/>
</g>
</svg>
