<?xml version="1.0" encoding="utf-8"?>
<!-- Generator: Adobe Illustrator 22.1.0, SVG Export Plug-In . SVG Version: 6.00 Build 0)  -->
<svg version="1.1" id="레이어_1" xmlns="http://www.w3.org/2000/svg" xmlns:xlink="http://www.w3.org/1999/xlink" x="0px"
	 y="0px" viewBox="0 0 100 100" style="enable-background:new 0 0 100 100;" xml:space="preserve">
<path d="M93.2,73.7V26c0-0.7-0.4-1.4-1-1.7L51,0.3c0,0,0,0-0.1,0c-0.1-0.1-0.2-0.1-0.3-0.1c0,0-0.1,0-0.1,0C50.3,0,50.2,0,50,0
	c0,0,0,0,0,0c-0.2,0-0.3,0-0.5,0.1c0,0-0.1,0-0.1,0c-0.1,0-0.2,0.1-0.3,0.1c0,0,0,0-0.1,0l-41.2,24c-0.6,0.4-1,1-1,1.7v47.7
	c-0.1,0.4,0,0.8,0.2,1.2c0.2,0.4,0.5,0.7,0.9,0.9l41.2,24c0.3,0.2,0.7,0.3,1,0.3s0.7-0.1,1-0.3l41.2-24c0.4-0.2,0.7-0.5,0.9-0.9
	C93.3,74.5,93.3,74,93.2,73.7z M89.2,70.8L52,53.5v-48l37.2,21.7V70.8z M48,5.5v48L10.8,70.8V27.1L48,5.5z M50,95.7L13.1,74.2L50,57
	l36.9,17.2L50,95.7z"/>
</svg>
