<?xml version="1.0" encoding="utf-8"?>
<!-- Generator: Adobe Illustrator 22.1.0, SVG Export Plug-In . SVG Version: 6.00 Build 0)  -->
<svg version="1.1" id="레이어_1" xmlns="http://www.w3.org/2000/svg" xmlns:xlink="http://www.w3.org/1999/xlink" x="0px"
	 y="0px" viewBox="0 0 100 100" style="enable-background:new 0 0 100 100;" xml:space="preserve">
<g>
	<path d="M54,4C29.1,4,8.7,23.9,8,48.7H0.3l9.7,9.7l9.7-9.7H12C12.7,26.1,31.3,8,54,8c23.2,0,42,18.8,42,42c0,23.2-18.8,42-42,42
		c-16.2,0-30.7-9.1-37.8-23.7c-0.5-1-1.7-1.4-2.7-0.9c-1,0.5-1.4,1.7-0.9,2.7C20.4,86.1,36.2,96,54,96c25.4,0,46-20.6,46-46
		S79.4,4,54,4z"/>
	<path d="M54,20.7c-1.1,0-2,0.9-2,2v23.4c-1.4,0.7-2.4,2.2-2.4,3.9c0,2.4,2,4.4,4.4,4.4s4.4-2,4.4-4.4c0-0.5-0.1-0.9-0.2-1.3
		l10.4-10.4c0.8-0.8,0.8-2,0-2.8c-0.8-0.8-2-0.8-2.8,0L56,45.2V22.7C56,21.6,55.1,20.7,54,20.7z"/>
</g>
</svg>
