<?xml version="1.0" encoding="utf-8"?>
<!-- Generator: Adobe Illustrator 22.1.0, SVG Export Plug-In . SVG Version: 6.00 Build 0)  -->
<svg version="1.1" id="레이어_1" xmlns="http://www.w3.org/2000/svg" xmlns:xlink="http://www.w3.org/1999/xlink" x="0px"
	 y="0px" viewBox="0 0 100 100" style="enable-background:new 0 0 100 100;" xml:space="preserve">
<g>
	<path d="M98.1,3.8H1.9C0.9,3.8,0,3,0,1.9S0.9,0,1.9,0h96.2c1.1,0,1.9,0.9,1.9,1.9S99.1,3.8,98.1,3.8z"/>
	<path d="M98.1,35.9H1.9C0.9,35.9,0,35,0,34s0.9-1.9,1.9-1.9h96.2c1.1,0,1.9,0.9,1.9,1.9S99.1,35.9,98.1,35.9z"/>
	<path d="M98.1,67.9H1.9C0.9,67.9,0,67.1,0,66s0.9-1.9,1.9-1.9h96.2c1.1,0,1.9,0.9,1.9,1.9S99.1,67.9,98.1,67.9z"/>
	<path d="M98.1,100H1.9C0.9,100,0,99.1,0,98.1s0.9-1.9,1.9-1.9h96.2c1.1,0,1.9,0.9,1.9,1.9S99.1,100,98.1,100z"/>
</g>
</svg>
