<?xml version="1.0" encoding="utf-8"?>
<!-- Generator: Adobe Illustrator 22.1.0, SVG Export Plug-In . SVG Version: 6.00 Build 0)  -->
<svg version="1.1" id="레이어_1" xmlns="http://www.w3.org/2000/svg" xmlns:xlink="http://www.w3.org/1999/xlink" x="0px"
	 y="0px" viewBox="0 0 100 100" style="enable-background:new 0 0 100 100;" xml:space="preserve">
<path d="M52.8,50L99.4,3.4c0.8-0.8,0.8-2,0-2.8c-0.8-0.8-2-0.8-2.8,0L50,47.2L3.4,0.6c-0.8-0.8-2-0.8-2.8,0c-0.8,0.8-0.8,2,0,2.8
	L47.2,50L0.6,96.6c-0.8,0.8-0.8,2,0,2.8C1,99.8,1.5,100,2,100s1-0.2,1.4-0.6L50,52.8l46.6,46.6c0.4,0.4,0.9,0.6,1.4,0.6
	s1-0.2,1.4-0.6c0.8-0.8,0.8-2,0-2.8L52.8,50z"/>
</svg>
