<?xml version="1.0" encoding="utf-8"?>
<!-- Generator: Adobe Illustrator 22.1.0, SVG Export Plug-In . SVG Version: 6.00 Build 0)  -->
<svg version="1.1" id="레이어_1" xmlns="http://www.w3.org/2000/svg" xmlns:xlink="http://www.w3.org/1999/xlink" x="0px"
	 y="0px" viewBox="0 0 100 100" style="enable-background:new 0 0 100 100;" xml:space="preserve">
<g>
	<path d="M98,0H2C0.9,0,0,0.9,0,2v62c0,1.1,0.9,2,2,2h96c1.1,0,2-0.9,2-2V2C100,0.9,99.1,0,98,0z M96,62H4V4h92V62z"/>
	<path d="M89,72.6c-1.1,0-2,0.9-2,2V79H13v-4.4c0-1.1-0.9-2-2-2s-2,0.9-2,2V81c0,1.1,0.9,2,2,2h78c1.1,0,2-0.9,2-2v-6.4
		C91,73.5,90.1,72.6,89,72.6z"/>
	<path d="M77,89.6c-1.1,0-2,0.9-2,2V96H25v-4.4c0-1.1-0.9-2-2-2s-2,0.9-2,2V98c0,1.1,0.9,2,2,2h54c1.1,0,2-0.9,2-2v-6.4
		C79,90.5,78.1,89.6,77,89.6z"/>
	<path d="M48.6,46.5c0.4,0.4,0.9,0.6,1.4,0.6s1-0.2,1.4-0.6l16.4-16.7c0.8-0.8,0.8-2.1,0-2.8c-0.8-0.8-2.1-0.8-2.8,0L50,42.2L35,27
		c-0.8-0.8-2-0.8-2.8,0c-0.8,0.8-0.8,2,0,2.8L48.6,46.5z"/>
</g>
</svg>
