<?xml version="1.0" encoding="utf-8"?>
<!-- Generator: Adobe Illustrator 22.1.0, SVG Export Plug-In . SVG Version: 6.00 Build 0)  -->
<svg version="1.1" id="레이어_1" xmlns="http://www.w3.org/2000/svg" xmlns:xlink="http://www.w3.org/1999/xlink" x="0px"
	 y="0px" viewBox="0 0 100 100" style="enable-background:new 0 0 100 100;" xml:space="preserve">
<g>
	<path d="M98,6H17.6c-1.1,0-2,0.9-2,2v12.3H2c-1.1,0-2,0.9-2,2v60.4c0,1.1,0.9,2,2,2h31.4l8.8,8.7c0.4,0.4,0.9,0.6,1.4,0.6
		s1-0.2,1.4-0.6l8.8-8.7h28.5c1.1,0,2-0.9,2-2V70.4H98c1.1,0,2-0.9,2-2V8C100,6.9,99.1,6,98,6z M80.4,80.7H53c-0.5,0-1,0.2-1.4,0.6
		l-8,7.9l-8-7.9c-0.4-0.4-0.9-0.6-1.4-0.6H4V24.3h76.4V80.7z M96,66.4H84.4V22.3c0-1.1-0.9-2-2-2H19.6V10H96V66.4z"/>
	<path d="M65.9,40.9H19.5c-1.1,0-2,0.9-2,2s0.9,2,2,2h46.4c1.1,0,2-0.9,2-2S67,40.9,65.9,40.9z"/>
	<path d="M65.9,59.9H19.5c-1.1,0-2,0.9-2,2s0.9,2,2,2h46.4c1.1,0,2-0.9,2-2S67,59.9,65.9,59.9z"/>
</g>
</svg>
