<?xml version="1.0" encoding="utf-8"?>
<!-- Generator: Adobe Illustrator 22.1.0, SVG Export Plug-In . SVG Version: 6.00 Build 0)  -->
<svg version="1.1" id="레이어_1" xmlns="http://www.w3.org/2000/svg" xmlns:xlink="http://www.w3.org/1999/xlink" x="0px"
	 y="0px" viewBox="0 0 100 100" style="enable-background:new 0 0 100 100;" xml:space="preserve">
<path d="M75.8,60.6c-6.5,0-12.2,3-15.8,7.7L43.1,56.8c0.7-2,1.1-4.2,1.1-6.4c0-2.9-0.7-5.7-1.9-8.2l17.6-10.6
	c3.7,4.8,9.4,7.9,16,7.9c11,0,20-8.8,20-19.7S86.9,0,75.8,0s-20,8.8-20,19.7c0,2.1,0.3,4.1,0.9,5.9l-18.3,11c-3.6-3.7-8.7-6-14.3-6
	c-11,0-20,8.8-20,19.7s9,19.7,20,19.7c6.3,0,12-2.9,15.6-7.5l17,11.6c-0.6,1.9-1,4-1,6.1c0,10.9,9,19.7,20,19.7s20-8.8,20-19.7
	S86.9,60.6,75.8,60.6z M75.8,6.7c7.4,0,13.3,5.9,13.3,13s-6,13-13.3,13c-7.4,0-13.3-5.8-13.3-13S68.5,6.7,75.8,6.7z M24.2,63.5
	c-7.4,0-13.3-5.9-13.3-13s6-13,13.3-13s13.3,5.9,13.3,13S31.5,63.5,24.2,63.5z M75.8,93.3c-7.4,0-13.3-5.9-13.3-13
	c0-7.2,6-13,13.3-13c7.4,0,13.3,5.8,13.3,13C89.2,87.5,83.2,93.3,75.8,93.3z"/>
</svg>
