<?xml version="1.0" encoding="utf-8"?>
<!-- Generator: Adobe Illustrator 22.1.0, SVG Export Plug-In . SVG Version: 6.00 Build 0)  -->
<svg version="1.1" id="레이어_1" xmlns="http://www.w3.org/2000/svg" xmlns:xlink="http://www.w3.org/1999/xlink" x="0px"
	 y="0px" viewBox="0 0 100 100" style="enable-background:new 0 0 100 100;" xml:space="preserve">
<style type="text/css">
	.st0{fill:#FFA41F;}
</style>
<path class="st0" d="M78.2,97.8c-0.7,0-1.4-0.2-2-0.5l-26-13.7c-0.1-0.1-0.3-0.1-0.4,0l0,0l-26,13.7c-1.5,0.8-3.2,0.6-4.5-0.3
	c-1.3-1-2-2.6-1.7-4.2l5-29c0-0.1,0-0.3-0.1-0.4L1.3,42.8c-1.2-1.1-1.6-2.8-1.1-4.4c0.5-1.6,1.8-2.7,3.5-2.9l29.1-4.2
	c0.1,0,0.3-0.1,0.3-0.2l13-26.4c0.7-1.5,2.2-2.4,3.9-2.4c0,0,0,0,0,0c1.6,0,3.1,0.9,3.9,2.4l13,26.4c0.1,0.1,0.2,0.2,0.3,0.2
	l29.1,4.2c1.6,0.2,3,1.4,3.5,2.9c0.5,1.6,0.1,3.3-1.1,4.4L77.6,63.4c-0.1,0.1-0.2,0.2-0.1,0.4l5,29c0.3,1.6-0.4,3.2-1.7,4.2
	C80,97.5,79.1,97.8,78.2,97.8z M50,79.7c0.7,0,1.4,0.2,2,0.5l26,13.7c0.2,0.1,0.4,0,0.5,0c0.1-0.1,0.2-0.2,0.2-0.4l-5-29
	c-0.2-1.4,0.2-2.8,1.2-3.8L96,40c0.2-0.2,0.2-0.3,0.1-0.5c0-0.1-0.1-0.3-0.4-0.3L66.7,35c-1.4-0.2-2.6-1.1-3.2-2.3l-13-26.4
	C50.3,6.1,50.1,6,50,6l0,0c-0.1,0-0.3,0-0.4,0.2l-13,26.4C36,34,34.7,34.8,33.3,35L4.2,39.3c-0.2,0-0.3,0.2-0.4,0.3
	c0,0.1-0.1,0.3,0.1,0.5l21.1,20.6c1,1,1.5,2.4,1.2,3.8l-5,29c0,0.2,0.1,0.4,0.2,0.4c0.1,0.1,0.3,0.1,0.5,0l26-13.7
	C48.6,79.9,49.3,79.7,50,79.7z"/>
</svg>
