<?xml version="1.0" encoding="utf-8"?>
<!-- Generator: Adobe Illustrator 22.1.0, SVG Export Plug-In . SVG Version: 6.00 Build 0)  -->
<svg version="1.1" id="레이어_1" xmlns="http://www.w3.org/2000/svg" xmlns:xlink="http://www.w3.org/1999/xlink" x="0px"
	 y="0px" viewBox="0 0 100 100" style="enable-background:new 0 0 100 100;" xml:space="preserve">
<path d="M99.4,96.6L72.7,69.9c6.8-7.4,10.9-17.3,10.9-28.1C83.6,18.8,64.9,0,41.8,0C18.8,0,0,18.8,0,41.8
	c0,23.1,18.8,41.8,41.8,41.8c10.8,0,20.7-4.1,28.1-10.9l26.7,26.7c0.4,0.4,0.9,0.6,1.4,0.6s1-0.2,1.4-0.6
	C100.2,98.6,100.2,97.4,99.4,96.6z M4,41.8C4,21,21,4,41.8,4s37.8,17,37.8,37.8c0,10.3-4.1,19.6-10.8,26.4c-0.1,0.1-0.2,0.2-0.3,0.3
	s-0.2,0.2-0.3,0.3c-6.8,6.7-16.1,10.8-26.4,10.8C21,79.6,4,62.7,4,41.8z"/>
</svg>
