<?xml version="1.0" encoding="utf-8"?>
<!-- Generator: Adobe Illustrator 22.1.0, SVG Export Plug-In . SVG Version: 6.00 Build 0)  -->
<svg version="1.1" id="레이어_1" xmlns="http://www.w3.org/2000/svg" xmlns:xlink="http://www.w3.org/1999/xlink" x="0px"
	 y="0px" viewBox="0 0 100 100" style="enable-background:new 0 0 100 100;" xml:space="preserve">
<style type="text/css">
	.st0{fill:#FFA41F;}
</style>
<g>
	<path class="st0" d="M36.2,59.6L20.8,75v-4.6c0-1.6-1.3-2.9-2.9-2.9c-1.6,0-2.9,1.3-2.9,2.9v11.7c0,1.6,1.3,2.9,2.9,2.9h11.7
		c1.6,0,2.9-1.3,2.9-2.9s-1.3-2.9-2.9-2.9h-4.7l15.4-15.4c1.1-1.1,1.1-3,0-4.1C39.2,58.5,37.3,58.5,36.2,59.6L36.2,59.6z"/>
	<path class="st0" d="M25,20.8h4.6c1.6,0,2.9-1.3,2.9-2.9c0-1.6-1.3-2.9-2.9-2.9H17.9c-1.6,0-2.9,1.3-2.9,2.9v11.7
		c0,1.6,1.3,2.9,2.9,2.9c1.6,0,2.9-1.3,2.9-2.9v-4.7l15.4,15.4c0.6,0.6,1.3,0.9,2.1,0.9c0.7,0,1.5-0.3,2.1-0.9c1.1-1.1,1.1-3,0-4.1
		L25,20.8z"/>
	<path class="st0" d="M82.1,15H70.4c-1.6,0-2.9,1.3-2.9,2.9c0,1.6,1.3,2.9,2.9,2.9H75L59.7,36.1c-1.1,1.1-1.1,3,0,4.1
		c0.6,0.6,1.3,0.9,2.1,0.9c0.7,0,1.5-0.3,2.1-0.9l15.4-15.4v4.7c0,1.6,1.3,2.9,2.9,2.9c1.6,0,2.9-1.3,2.9-2.9V17.9
		C85,16.3,83.7,15,82.1,15z"/>
	<path class="st0" d="M82.1,67.5c-1.6,0-2.9,1.3-2.9,2.9V75L63.8,59.6c-1.1-1.1-3-1.1-4.1,0c-1.1,1.1-1.1,3,0,4.1l15.4,15.4h-4.7
		c-1.6,0-2.9,1.3-2.9,2.9s1.3,2.9,2.9,2.9h11.7c1.6,0,2.9-1.3,2.9-2.9V70.4C85,68.8,83.7,67.5,82.1,67.5z"/>
</g>
<g>
	<path class="st0" d="M88,4c4.4,0,8,3.6,8,8v76c0,4.4-3.6,8-8,8H12c-4.4,0-8-3.6-8-8V12c0-4.4,3.6-8,8-8H88 M88,0H12
		C5.4,0,0,5.4,0,12v76c0,6.6,5.4,12,12,12h76c6.6,0,12-5.4,12-12V12C100,5.4,94.6,0,88,0L88,0z"/>
</g>
</svg>
