<?xml version="1.0" encoding="utf-8"?>
<!-- Generator: Adobe Illustrator 22.1.0, SVG Export Plug-In . SVG Version: 6.00 Build 0)  -->
<svg version="1.1" id="레이어_1" xmlns="http://www.w3.org/2000/svg" xmlns:xlink="http://www.w3.org/1999/xlink" x="0px"
	 y="0px" viewBox="0 0 100 100" style="enable-background:new 0 0 100 100;" xml:space="preserve">
<g>
	<path d="M98,37.5H54.8c-1.1,0-2-0.9-2-2V2c0-1.1,0.9-2,2-2H98c1.1,0,2,0.9,2,2v33.5C100,36.6,99.1,37.5,98,37.5z M56.8,33.5H96V4
		H56.8V33.5z"/>
	<path d="M98,100H54.8c-1.1,0-2-0.9-2-2V46.6c0-1.1,0.9-2,2-2H98c1.1,0,2,0.9,2,2V98C100,99.1,99.1,100,98,100z M56.8,96H96V48.6
		H56.8V96z"/>
	<path d="M45.2,100H2c-1.1,0-2-0.9-2-2V64.5c0-1.1,0.9-2,2-2h43.2c1.1,0,2,0.9,2,2V98C47.2,99.1,46.3,100,45.2,100z M4,96h39.2V66.5
		H4V96z"/>
	<path d="M45.2,55.4H2c-1.1,0-2-0.9-2-2V2c0-1.1,0.9-2,2-2h43.2c1.1,0,2,0.9,2,2v51.4C47.2,54.5,46.3,55.4,45.2,55.4z M4,51.4h39.2
		V4H4V51.4z"/>
</g>
</svg>
