<?xml version="1.0" encoding="utf-8"?>
<!-- Generator: Adobe Illustrator 22.1.0, SVG Export Plug-In . SVG Version: 6.00 Build 0)  -->
<svg version="1.1" id="레이어_1" xmlns="http://www.w3.org/2000/svg" xmlns:xlink="http://www.w3.org/1999/xlink" x="0px"
	 y="0px" viewBox="0 0 100 100" style="enable-background:new 0 0 100 100;" xml:space="preserve">
<style type="text/css">
	.st0{fill:#FFA41F;}
</style>
<path class="st0" d="M48.9,83.2L21.8,97.4c-1.8,1-3.9-0.6-3.6-2.6l5.2-30.2c0.1-0.8-0.1-1.6-0.7-2.2L0.7,41.1
	c-1.5-1.4-0.7-3.9,1.4-4.2l30.3-4.4c0.8-0.1,1.5-0.6,1.9-1.3L47.8,3.6c0.9-1.8,3.5-1.8,4.4,0l13.5,27.5c0.4,0.7,1.1,1.2,1.9,1.3
	l30.3,4.4c2,0.3,2.8,2.8,1.4,4.2L77.3,62.5c-0.6,0.6-0.8,1.4-0.7,2.2l5.2,30.2c0.3,2-1.8,3.5-3.6,2.6L51.1,83.2
	C50.4,82.8,49.6,82.8,48.9,83.2z"/>
</svg>
