<?xml version="1.0" encoding="utf-8"?>
<!-- Generator: Adobe Illustrator 22.1.0, SVG Export Plug-In . SVG Version: 6.00 Build 0)  -->
<svg version="1.1" id="레이어_1" xmlns="http://www.w3.org/2000/svg" xmlns:xlink="http://www.w3.org/1999/xlink" x="0px"
	 y="0px" viewBox="0 0 100 100" style="enable-background:new 0 0 100 100;" xml:space="preserve">
<g transform="translate(0,-952.36218)">
	<path d="M50,1049.6l-2-1.5c-22.3-16.8-48-39.2-48-64.4c0-13.8,11.4-28.5,28.4-28.5c9,0,16.3,6.1,21.6,11.9
		c5.3-5.8,12.6-11.9,21.6-11.9c17,0,28.4,14.8,28.4,28.5c0,25.2-25.6,47.6-48,64.4L50,1049.6z M28.4,961.9
		c-13.9,0-21.6,12.8-21.6,21.7c0,21.6,24.1,42.9,43.2,57.4c19.1-14.6,43.2-35.8,43.2-57.4c0-8.9-7.7-21.7-21.6-21.7
		c-5.8,0-12,4.1-19,12.5l-2.6,3.1l-2.6-3.1C40.4,966,34.2,961.9,28.4,961.9z"/>
</g>
<g transform="translate(0,-952.36218)">
	<path d="M50,1049.6l-2-1.5c-22.3-16.8-48-39.2-48-64.4c0-13.8,11.4-28.5,28.4-28.5c9,0,16.3,6.1,21.6,11.9
		c5.3-5.8,12.6-11.9,21.6-11.9c17,0,28.4,14.8,28.4,28.5c0,25.2-25.6,47.6-48,64.4L50,1049.6z"/>
</g>
</svg>
