<?xml version="1.0" encoding="utf-8"?>
<!-- Generator: Adobe Illustrator 22.1.0, SVG Export Plug-In . SVG Version: 6.00 Build 0)  -->
<svg version="1.1" id="레이어_1" xmlns="http://www.w3.org/2000/svg" xmlns:xlink="http://www.w3.org/1999/xlink" x="0px"
	 y="0px" viewBox="0 0 100 100" style="enable-background:new 0 0 100 100;" xml:space="preserve">
<g>
	<g>
		<path d="M76.1,0H4.2C1.9,0,0,1.9,0,4.2v91.5c0,2.3,1.9,4.2,4.2,4.2h72.7c2.3,0,4.2-1.9,4.2-4.2V37L81.1,5C81.1,2.3,78.8,0,76.1,0z
			 M59.1,52.9H21.8c-3,0-5.3-1.9-5.3-4.2c0-2.3,2.3-4.2,5.3-4.2h37.5c3,0,5.3,1.9,5.3,4.2C64.6,51,62.1,52.9,59.1,52.9z M59.1,73.2
			H21.8c-3,0-5.3-1.9-5.3-4.2c0-2.3,2.3-4.2,5.3-4.2h37.5c3,0,5.3,1.9,5.3,4.2C64.6,71.3,62.1,73.2,59.1,73.2z M59.1,33.2H21.8
			c-3,0-5.3-1.9-5.3-4.2s2.3-4.2,5.3-4.2h37.5c3,0,5.3,1.9,5.3,4.2S62.1,33.2,59.1,33.2z"/>
	</g>
	<g>
		<path d="M92.9,100h-7.4v-5.5h7.4c0.7,0,1.3-0.6,1.3-1.3V6.8c0-0.7-0.6-1.3-1.3-1.3h-7.4V0h7.4c3.9,0,7.1,3,7.1,6.8v86.5
			C100,97,96.8,100,92.9,100z"/>
	</g>
</g>
</svg>
