<?xml version="1.0" encoding="utf-8"?>
<!-- Generator: Adobe Illustrator 22.1.0, SVG Export Plug-In . SVG Version: 6.00 Build 0)  -->
<svg version="1.1" id="레이어_1" xmlns="http://www.w3.org/2000/svg" xmlns:xlink="http://www.w3.org/1999/xlink" x="0px"
	 y="0px" viewBox="0 0 100 100" style="enable-background:new 0 0 100 100;" xml:space="preserve">
<g>
	<g>
		<path d="M53.1,1.2c-1.7-1.7-4.5-1.7-6.2,0L1.3,44.8c-1.7,1.7-1.8,4.4-0.2,6.1l3,3.1c1.6,1.7,4.4,1.8,6.1,0.1l-0.5,0.5
			c0.9-0.8,1.5-0.5,1.5,0.7v40.3c0,2.4,1.9,4.3,4.3,4.3h68.8c2.4,0,4.3-1.9,4.3-4.3V55.4c0-1.2,0.7-1.5,1.5-0.7l-0.5-0.5
			c1.7,1.6,4.4,1.6,6.1-0.1l3-3.1c1.6-1.7,1.6-4.5-0.2-6.1L85.4,32.1c-1.7-1.7-3.1-4.9-3.1-7.3V7.2c0-2.4-1.9-4.3-4.3-4.3h-8.6
			c-2.4,0-4.3,1.9-4.3,4.3v3.3c0,1.2-0.7,1.5-1.6,0.7L53.1,1.2z"/>
	</g>
</g>
</svg>
