<?xml version="1.0" encoding="utf-8"?>
<!-- Generator: Adobe Illustrator 22.1.0, SVG Export Plug-In . SVG Version: 6.00 Build 0)  -->
<svg version="1.1" id="레이어_1" xmlns="http://www.w3.org/2000/svg" xmlns:xlink="http://www.w3.org/1999/xlink" x="0px"
	 y="0px" viewBox="0 0 100 100" style="enable-background:new 0 0 100 100;" xml:space="preserve">
<style type="text/css">
	.st0{fill:#FFA41F;}
</style>
<path class="st0" d="M50,98.3c-5,0-9-4-9-9V68.5L1.8,16.1C-0.3,13.4-0.6,9.8,1,6.7c1.5-3.1,4.6-5,8.1-5H91c3.4,0,6.5,1.9,8.1,5
	c1.5,3.1,1.2,6.7-0.8,9.4L59,68.5v20.8C59,94.2,55,98.3,50,98.3z M9,5.6c-2,0-3.8,1.1-4.6,2.8c-0.9,1.8-0.7,3.8,0.5,5.4l39.9,53.4
	v22c0,2.8,2.3,5.2,5.2,5.2c2.9,0,5.2-2.3,5.2-5.2v-22l39.9-53.4c1.2-1.6,1.4-3.6,0.5-5.4c-0.9-1.8-2.7-2.8-4.6-2.8H9z"/>
</svg>
