<?xml version="1.0" encoding="utf-8"?>
<!-- Generator: Adobe Illustrator 22.1.0, SVG Export Plug-In . SVG Version: 6.00 Build 0)  -->
<svg version="1.1" id="레이어_1" xmlns="http://www.w3.org/2000/svg" xmlns:xlink="http://www.w3.org/1999/xlink" x="0px"
	 y="0px" viewBox="0 0 100 100" style="enable-background:new 0 0 100 100;" xml:space="preserve">
<g>
	<path d="M50,4c25.4,0,46,20.6,46,46S75.4,96,50,96S4,75.4,4,50S24.6,4,50,4 M50,0C22.4,0,0,22.4,0,50s22.4,50,50,50s50-22.4,50-50
		S77.6,0,50,0L50,0z"/>
</g>
<g>
	<path d="M50,80.8c-1.3,0-2.4-0.5-3.3-1.4c-0.9-0.9-1.4-2-1.4-3.3c0-1.3,0.5-2.4,1.4-3.3c0.9-0.9,2-1.4,3.3-1.4
		c1.3,0,2.4,0.5,3.3,1.4c0.9,0.9,1.4,2,1.4,3.3c0,1.3-0.5,2.4-1.4,3.3C52.4,80.4,51.3,80.8,50,80.8z M53.6,19.2l-0.8,43.7H47
		l-0.8-43.7H53.6z"/>
</g>
</svg>
