<?xml version="1.0" encoding="utf-8"?>
<!-- Generator: Adobe Illustrator 22.1.0, SVG Export Plug-In . SVG Version: 6.00 Build 0)  -->
<svg version="1.1" id="레이어_1" xmlns="http://www.w3.org/2000/svg" xmlns:xlink="http://www.w3.org/1999/xlink" x="0px"
	 y="0px" viewBox="0 0 100 100" style="enable-background:new 0 0 100 100;" xml:space="preserve">
<style type="text/css">
	.st0{fill:#FFFFFF;}
	.st1{fill:#5A554F;}
	.st2{fill:#B2B2B2;}
</style>
<g>
	<circle class="st0" cx="50" cy="50" r="48"/>
	<path class="st1" d="M50,4c25.4,0,46,20.6,46,46S75.4,96,50,96S4,75.4,4,50S24.6,4,50,4 M50,0C22.4,0,0,22.4,0,50s22.4,50,50,50
		s50-22.4,50-50S77.6,0,50,0L50,0z"/>
</g>
<path class="st2" d="M50,66.5c-14.5,0-26.8,9.7-30.6,23C27.8,96.1,38.5,100,50,100s22.2-3.9,30.6-10.5C76.8,76.2,64.5,66.5,50,66.5z
	"/>
<g>
	<path class="st1" d="M50,4c25.4,0,46,20.6,46,46S75.4,96,50,96S4,75.4,4,50S24.6,4,50,4 M50,0C22.4,0,0,22.4,0,50s22.4,50,50,50
		s50-22.4,50-50S77.6,0,50,0L50,0z"/>
</g>
<circle class="st2" cx="50" cy="42.9" r="15.4"/>
</svg>
