<?xml version="1.0" encoding="utf-8"?>
<!-- Generator: Adobe Illustrator 22.1.0, SVG Export Plug-In . SVG Version: 6.00 Build 0)  -->
<svg version="1.1" id="레이어_1" xmlns="http://www.w3.org/2000/svg" xmlns:xlink="http://www.w3.org/1999/xlink" x="0px"
	 y="0px" viewBox="0 0 100 100" style="enable-background:new 0 0 100 100;" xml:space="preserve">
<style type="text/css">
	.st0{fill:#FFA41F;}
</style>
<path class="st0" d="M87.3,0c-5.8,0-10.5,4.7-10.5,10.5c0,2,0.6,3.8,1.6,5.4l-8.1,8.1c-5.6-4.6-12.8-7.4-20.6-7.4
	c-17.9,0-32.3,14.5-32.3,32.3c0,4.4,0.9,8.6,2.5,12.4L12,69.1c-1-0.7-2.2-1-3.5-1c-3.5,0-6.3,2.8-6.3,6.3c0,3.5,2.8,6.3,6.3,6.3
	c3.5,0,6.3-2.8,6.3-6.3c0-0.6-0.1-1.2-0.3-1.7l7.2-7.2c5.6,9.5,15.9,15.8,27.8,15.8c5.6,0,10.8-1.4,15.4-3.9l3.6,5.1
	c-1.7,1.9-2.8,4.3-2.8,7.1c0,5.8,4.7,10.5,10.5,10.5c5.8,0,10.5-4.7,10.5-10.5c0-5.8-4.7-10.5-10.5-10.5c-1.5,0-2.9,0.3-4.2,0.9
	L68.7,75c8-5.9,13.2-15.3,13.2-26c0-8.4-3.3-16.1-8.5-21.8l8-8c1.7,1.2,3.7,1.9,6,1.9c5.8,0,10.5-4.7,10.5-10.5
	C97.8,4.7,93.1,0,87.3,0z M37,48.9c0-6.9,5.6-12.6,12.6-12.6c6.9,0,12.6,5.6,12.6,12.6c0,6.9-5.6,12.6-12.6,12.6
	C42.7,61.5,37,55.9,37,48.9z"/>
</svg>
