<?xml version="1.0" encoding="utf-8"?>
<!-- Generator: Adobe Illustrator 22.1.0, SVG Export Plug-In . SVG Version: 6.00 Build 0)  -->
<svg version="1.1" id="레이어_1" xmlns="http://www.w3.org/2000/svg" xmlns:xlink="http://www.w3.org/1999/xlink" x="0px"
	 y="0px" viewBox="0 0 100 100" style="enable-background:new 0 0 100 100;" xml:space="preserve">
<style type="text/css">
	.st0{fill:#FFA41F;}
</style>
<g>
	<path class="st0" d="M51.2,100c6.2,0,11.3-4.6,12.1-10.6H39.1C39.9,95.4,45,100,51.2,100z"/>
	<path class="st0" d="M82.6,68.2c-2.3-4.8-4.1-12.7-4.1-25.8c0-17.9-10.3-25.3-18.6-28.5c0.3-1.1,0.6-2.2,0.6-3.4
		C60.5,4.7,55.8,0,50,0S39.5,4.7,39.5,10.6c0,1.2,0.2,2.4,0.6,3.4c-8.3,3.2-18.6,10.6-18.6,28.5c0,21.1-4.7,28.7-8.6,31.4
		c-1.7,1.2-2.9,3.2-2.9,5.4c0,3.5,2.9,6.5,6.4,6.5h33.4h0.6h33.4c3.5,0.1,6.3-2.8,6.3-6.4c0-2.1-1-4.1-2.9-5.4
		c-0.5-0.2-0.8-0.6-1.3-1.1 M50,4.7c3.3,0,5.8,2.6,5.8,5.9c0,0.7-0.1,1.4-0.3,2.1c-4.7-1.2-8.8-0.5-10.9,0c-0.2-0.7-0.3-1.4-0.3-2.1
		C44.2,7.3,46.7,4.7,50,4.7z"/>
</g>
</svg>
