<?xml version="1.0" encoding="utf-8"?>
<!-- Generator: Adobe Illustrator 22.1.0, SVG Export Plug-In . SVG Version: 6.00 Build 0)  -->
<svg version="1.1" id="레이어_1" xmlns="http://www.w3.org/2000/svg" xmlns:xlink="http://www.w3.org/1999/xlink" x="0px"
	 y="0px" viewBox="0 0 100 100" style="enable-background:new 0 0 100 100;" xml:space="preserve">
<style type="text/css">
	.st0{fill:#FFA41F;}
</style>
<path class="st0" d="M3,3.1C2.8,3.2,2.7,3.4,2.7,3.7L0,24.7c-0.1,0.6,0.4,1.2,1,1.3c0.1,0,0.2,0,0.3,0l14.4-1.8l-1.8,14.4
	c-0.1,0.6,0.4,1.2,1,1.3c0.1,0,0.2,0,0.3,0l14.4-1.8l-1.8,14.4c0,0.3,0.1,0.7,0.3,0.9l5.8,5.8c-2.5,11.2,0.8,23,9,31.2
	c13.1,13.1,34.4,13.1,47.5,0c13.1-13.1,13.1-34.4,0-47.5c0,0,0,0,0,0c-8.2-8.2-19.9-11.6-31.2-9L25.7,0.3C25.4,0.1,25.1,0,24.7,0
	L3.7,2.7C3.4,2.7,3.2,2.9,3,3.1 M66,66c3.5-3.5,9.2-3.5,12.7,0c3.5,3.5,3.5,9.2,0,12.7l0,0c-3.5,3.5-9.2,3.5-12.7,0l0,0
	C62.5,75.2,62.5,69.5,66,66"/>
</svg>
