<?xml version="1.0" encoding="utf-8"?>
<!-- Generator: Adobe Illustrator 22.1.0, SVG Export Plug-In . SVG Version: 6.00 Build 0)  -->
<svg version="1.1" id="레이어_1" xmlns="http://www.w3.org/2000/svg" xmlns:xlink="http://www.w3.org/1999/xlink" x="0px"
	 y="0px" viewBox="0 0 100 100" style="enable-background:new 0 0 100 100;" xml:space="preserve">
<style type="text/css">
	.st0{fill:#FFA41F;}
</style>
<g>
	<path class="st0" d="M74.1,30.3c-1.9,1.8-2,4.8-0.2,6.9l8.5,9.3H60v9.7h22.3l-8.5,9.3c-1.8,1.9-1.7,5,0.2,6.9c1,0.8,2,1.3,3.2,1.3
		c1.3,0,2.5-0.5,3.5-1.6L100,51.2L80.8,30.5C79,28.6,76,28.5,74.1,30.3z"/>
	<path class="st0" d="M30,51.2c0-2.7,2.2-4.8,4.8-4.8H60V16.5c0-5.6-4.4-10-10-10H10c-5.5,0-10,4.5-10,10v66.9c0,5.6,4.4,10,10,10
		h40.1c5.5,0,10-4.5,10-10V56H34.8C32.2,56,30,53.9,30,51.2z"/>
</g>
</svg>
