<?xml version="1.0" encoding="utf-8"?>
<!-- Generator: Adobe Illustrator 22.1.0, SVG Export Plug-In . SVG Version: 6.00 Build 0)  -->
<svg version="1.1" id="레이어_1" xmlns="http://www.w3.org/2000/svg" xmlns:xlink="http://www.w3.org/1999/xlink" x="0px"
	 y="0px" viewBox="0 0 100 100" style="enable-background:new 0 0 100 100;" xml:space="preserve">
<style type="text/css">
	.st0{fill:#FFA41F;}
</style>
<g>
	<path class="st0" d="M94,68.3c-4.3-2-12.9-6.1-20.7-9.8C45.4,45,21.7,45.8,3.6,75.3c-1,1.7-2.2,3.6-3.2,5.2
		C-0.4,82,0,83.9,1.5,84.8l20.7,12.7c1.5,0.9,3.5,0.5,4.4-1c0,0,0,0,0,0c0.8-1.4,1.9-3.2,3.1-5.1c8.2-13.5,16.4-11.9,31.3-4.8
		l20.5,9.8c1.6,0.8,3.5,0.1,4.2-1.5c0,0,0-0.1,0-0.1l9.8-22.3C96.3,70.9,95.6,69,94,68.3z"/>
	<path class="st0" d="M98.5,15.2L77.8,2.5c-1.5-1-3.4-0.6-4.4,0.9c0,0.1-0.1,0.1-0.1,0.2c-0.8,1.4-1.9,3.2-3.1,5.1
		C62,22.2,53.8,20.5,38.9,13.4L18.5,3.7C16.9,3,15,3.6,14.2,5.2c0,0,0,0.1,0,0.1L4.3,27.6c-0.7,1.6,0,3.4,1.6,4.2
		c4.3,2,12.9,6.1,20.7,9.8c27.9,13.5,51.6,12.6,69.8-16.8c1-1.7,2.2-3.6,3.2-5.2C100.4,18.1,100,16.1,98.5,15.2z"/>
</g>
</svg>
