<?xml version="1.0" encoding="utf-8"?>
<!-- Generator: Adobe Illustrator 22.1.0, SVG Export Plug-In . SVG Version: 6.00 Build 0)  -->
<svg version="1.1" id="레이어_1" xmlns="http://www.w3.org/2000/svg" xmlns:xlink="http://www.w3.org/1999/xlink" x="0px"
	 y="0px" viewBox="0 0 100 100" xml:space="preserve">
<style type="text/css">
	.st0{fill-rule:evenodd;clip-rule:evenodd;fill:#FFA41F;}
</style>
<path class="st0" d="M50,0.8C22.4,0.8,0,23.4,0,51.2c0,22.3,14.3,41.2,34.2,47.8c2.5,0.5,3.4-1.1,3.4-2.4c0-1.2,0-4.4-0.1-8.6
	c-13.9,3-16.8-6.8-16.8-6.8c-2.3-5.8-5.6-7.4-5.6-7.4c-4.5-3.1,0.3-3.1,0.3-3.1c5,0.4,7.7,5.2,7.7,5.2c4.5,7.7,11.7,5.5,14.6,4.2
	c0.5-3.3,1.7-5.5,3.2-6.7c-11.1-1.3-22.8-5.6-22.8-24.9c0-5.5,1.9-10,5.1-13.5c-0.5-1.3-2.2-6.4,0.5-13.3c0,0,4.2-1.4,13.7,5.2
	c4-1.1,8.3-1.7,12.5-1.7c4.2,0,8.5,0.6,12.5,1.7c9.5-6.5,13.7-5.2,13.7-5.2c2.7,6.9,1,12.1,0.5,13.3c3.2,3.5,5.1,8,5.1,13.5
	c0,19.4-11.7,23.6-22.8,24.9c1.8,1.6,3.4,4.6,3.4,9.3c0,6.7-0.1,12.2-0.1,13.8c0,1.3,0.9,2.9,3.4,2.4C85.7,92.4,100,73.5,100,51.2
	C100,23.4,77.6,0.8,50,0.8z"/>
</svg>
