<?xml version="1.0" encoding="utf-8"?>
<!-- Generator: Adobe Illustrator 22.1.0, SVG Export Plug-In . SVG Version: 6.00 Build 0)  -->
<svg version="1.1" id="레이어_1" xmlns="http://www.w3.org/2000/svg" xmlns:xlink="http://www.w3.org/1999/xlink" x="0px"
	 y="0px" viewBox="0 0 800 100" style="enable-background:new 0 0 800 100;" xml:space="preserve">
<style type="text/css">
	.st0{fill:#FFA41F;}
	.st1{fill-rule:evenodd;clip-rule:evenodd;fill:#FFA41F;}
</style>
<g>
	<g>
		<path class="st0" d="M350.7,43h-30.3c-0.8,0-1.4,0.6-1.4,1.4v14.8c0,0.8,0.6,1.4,1.4,1.4h11.8V79c0,0-2.7,0.9-10,0.9
			c-8.6,0-20.7-3.2-20.7-29.7c0-26.6,12.6-30.1,24.4-30.1c10.2,0,14.6,1.8,17.4,2.7c0.9,0.3,1.7-0.6,1.7-1.4l3.4-14.3
			c0-0.4-0.1-0.8-0.5-1.1c-1.1-0.8-8.1-4.7-25.6-4.7c-20.2,0-40.9,8.6-40.9,49.9c0,41.3,23.7,47.5,43.7,47.5
			c16.6,0,26.6-7.1,26.6-7.1c0.4-0.2,0.5-0.8,0.5-1.1V44.4C352.1,43.6,351.5,43,350.7,43z"/>
		<path class="st0" d="M506.7,6.2c0-0.8-0.6-1.4-1.4-1.4h-17c-0.8,0-1.4,0.6-1.4,1.4c0,0,0,32.9,0,32.9h-26.6V6.2
			c0-0.8-0.6-1.4-1.4-1.4h-17c-0.8,0-1.4,0.6-1.4,1.4v89.2c0,0.8,0.6,1.4,1.4,1.4h17c0.8,0,1.4-0.6,1.4-1.4V57.3h26.6
			c0,0,0,38.1,0,38.1c0,0.8,0.6,1.4,1.4,1.4h17.1c0.8,0,1.4-0.6,1.4-1.4V6.2z"/>
		<g>
			<g>
				<path class="st0" d="M382.9,18c0-6.1-4.9-11.1-11-11.1c-6.1,0-11,5-11,11.1c0,6.1,4.9,11.1,11,11.1
					C378,29.1,382.9,24.1,382.9,18z"/>
				<path class="st0" d="M381.7,76.6c0-2.3,0-41.2,0-41.2c0-0.8-0.6-1.4-1.4-1.4h-17c-0.8,0-1.5,0.8-1.5,1.6c0,0,0,49.5,0,59
					c0,1.7,1.1,2.2,2.5,2.2c0,0,7.3,0,15.3,0c1.7,0,2.1-0.8,2.1-2.3C381.7,91.4,381.7,79,381.7,76.6z"/>
			</g>
		</g>
		<path class="st0" d="M571.5,34.2h-16.9c-0.8,0-1.4,0.6-1.4,1.4v43.7c0,0-4.3,3.1-10.4,3.1c-6.1,0-7.7-2.8-7.7-8.7
			c0-6,0-38.1,0-38.1c0-0.8-0.6-1.4-1.4-1.4h-17.2c-0.8,0-1.4,0.6-1.4,1.4c0,0,0,23.3,0,41c0,17.7,9.9,22.1,23.5,22.1
			c11.2,0,20.1-6.2,20.1-6.2s0.4,3.2,0.6,3.6c0.2,0.4,0.7,0.8,1.2,0.8l10.9,0c0.8,0,1.4-0.6,1.4-1.4l0-59.9
			C572.9,34.8,572.3,34.2,571.5,34.2z"/>
		<path class="st0" d="M617.7,32.2c-9.6,0-16.1,4.3-16.1,4.3V6.2c0-0.8-0.6-1.4-1.4-1.4h-17.1c-0.8,0-1.4,0.6-1.4,1.4v89.2
			c0,0.8,0.6,1.4,1.4,1.4c0,0,11.9,0,11.9,0c0.5,0,0.9-0.3,1.2-0.8c0.3-0.5,0.7-4.1,0.7-4.1s7,6.6,20.2,6.6
			c15.5,0,24.4-7.9,24.4-35.4C641.5,35.8,627.3,32.2,617.7,32.2z M611,82.4c-5.9-0.2-9.8-2.8-9.8-2.8V51.3c0,0,3.9-2.4,8.7-2.8
			c6.1-0.5,12,1.3,12,15.8C621.9,79.6,619.2,82.7,611,82.4z"/>
		<path class="st0" d="M430.6,34h-12.8c0,0,0-16.9,0-16.9c0-0.6-0.3-1-1.1-1h-17.4c-0.7,0-1,0.3-1,0.9v17.5c0,0-8.7,2.1-9.3,2.3
			c-0.6,0.2-1,0.7-1,1.4v11c0,0.8,0.6,1.4,1.4,1.4h8.9c0,0,0,11.5,0,26.4c0,19.6,13.7,21.5,23,21.5c4.2,0,9.3-1.4,10.1-1.7
			c0.5-0.2,0.8-0.7,0.8-1.3l0-12.1c0-0.8-0.7-1.4-1.4-1.4c-0.7,0-2.7,0.3-4.6,0.3c-6.3,0-8.4-2.9-8.4-6.7c0-3.8,0-25.1,0-25.1h12.8
			c0.8,0,1.4-0.6,1.4-1.4V35.4C432.1,34.7,431.4,34,430.6,34z"/>
	</g>
	<path class="st1" d="M204.9,4.7c-25.6,0-46.4,20.8-46.4,46.4c0,20.5,13.3,37.9,31.8,44.1c2.3,0.4,3.2-1,3.2-2.2c0-1.1,0-4-0.1-7.9
		c-12.9,2.8-15.6-6.2-15.6-6.2c-2.1-5.4-5.2-6.8-5.2-6.8c-4.2-2.9,0.3-2.8,0.3-2.8c4.7,0.3,7.1,4.8,7.1,4.8c4.1,7.1,10.9,5,13.5,3.9
		c0.4-3,1.6-5,2.9-6.2c-10.3-1.2-21.2-5.2-21.2-23c0-5.1,1.8-9.2,4.8-12.5c-0.5-1.2-2.1-5.9,0.5-12.3c0,0,3.9-1.2,12.8,4.8
		c3.7-1,7.7-1.5,11.6-1.6c3.9,0,7.9,0.5,11.6,1.6c8.9-6,12.8-4.8,12.8-4.8c2.5,6.4,0.9,11.1,0.5,12.3c3,3.2,4.8,7.4,4.8,12.5
		c0,17.8-10.9,21.8-21.2,22.9c1.7,1.4,3.2,4.3,3.2,8.6c0,6.2-0.1,11.2-0.1,12.7c0,1.2,0.8,2.7,3.2,2.2c18.4-6.2,31.7-23.6,31.7-44.1
		C251.4,25.5,230.6,4.7,204.9,4.7z"/>
</g>
</svg>
