<?xml version="1.0" encoding="utf-8"?>
<!-- Generator: Adobe Illustrator 22.1.0, SVG Export Plug-In . SVG Version: 6.00 Build 0)  -->
<svg version="1.1" id="레이어_1" xmlns="http://www.w3.org/2000/svg" xmlns:xlink="http://www.w3.org/1999/xlink" x="0px"
	 y="0px" viewBox="0 0 800 100" style="enable-background:new 0 0 800 100;" xml:space="preserve">
<style type="text/css">
	.st0{fill:#FFA41F;}
</style>
<g>
	<path class="st0" d="M402.3,0c-5.8,0-10.5,4.7-10.5,10.5c0,2,0.6,3.8,1.6,5.4l-8.1,8.1c-5.6-4.6-12.8-7.4-20.7-7.4
		c-17.9,0-32.4,14.5-32.4,32.3c0,4.4,0.9,8.6,2.5,12.4l-7.7,7.7c-1-0.7-2.2-1-3.5-1c-3.5,0-6.4,2.8-6.4,6.3c0,3.5,2.8,6.3,6.4,6.3
		c3.5,0,6.4-2.8,6.4-6.3c0-0.6-0.1-1.2-0.3-1.7l7.2-7.2c5.6,9.5,16,15.8,27.8,15.8c5.6,0,10.8-1.4,15.4-3.9l3.6,5.1
		c-1.7,1.9-2.8,4.3-2.8,7.1c0,5.8,4.7,10.5,10.5,10.5c5.8,0,10.5-4.7,10.5-10.5c0-5.8-4.7-10.5-10.5-10.5c-1.5,0-2.9,0.3-4.2,0.9
		l-3.5-4.9c8-5.9,13.3-15.3,13.3-26c0-8.4-3.3-16.1-8.6-21.8l8-8c1.7,1.2,3.7,1.9,6,1.9c5.8,0,10.5-4.7,10.5-10.5
		C412.8,4.7,408.1,0,402.3,0z M351.9,48.9c0-6.9,5.6-12.6,12.6-12.6c6.9,0,12.6,5.6,12.6,12.6c0,6.9-5.6,12.6-12.6,12.6
		C357.6,61.5,351.9,55.9,351.9,48.9z"/>
	<path class="st0" d="M466.9,19.2h-0.6h-7.1h-18.4h-14.9V34v37.4v14.8h14.9h18.4h7.1h0.6c3.9,0,7.1-3.2,7.1-7.1V26.3
		C474,22.4,470.8,19.2,466.9,19.2z M440.7,71.5V34h18.4v37.4H440.7z"/>
	<path class="st0" d="M305.2,34V19.2h-33.3h-7.1h-0.6c-3.9,0-7.1,3.2-7.1,7.1v52.9c0,3.9,3.2,7.1,7.1,7.1h0.6h7.1h33.3V71.5h-33.3
		V34H305.2z"/>
	<path class="st0" d="M543,59.6V44.7h-33.6V34h33.3V19.2h-33.3h-14.9V34v45.1c0,3.9,3.2,7.1,7.1,7.1h6.2h1.5H543V71.5h-33.6V59.6
		H543z"/>
</g>
</svg>
