<?xml version="1.0" encoding="utf-8"?>
<!-- Generator: Adobe Illustrator 22.1.0, SVG Export Plug-In . SVG Version: 6.00 Build 0)  -->
<svg version="1.1" id="레이어_1" xmlns="http://www.w3.org/2000/svg" xmlns:xlink="http://www.w3.org/1999/xlink" x="0px"
	 y="0px" viewBox="0 0 800 100" style="enable-background:new 0 0 800 100;" xml:space="preserve">
<style type="text/css">
	.st0{fill:#FFA41F;}
</style>
<g>
	<g id="Blue">
		<path class="st0" d="M206.1,94.3c-5.7,3.7-14.6,5.4-24,5.4c-29.8,0-46.6-17.9-46.6-46.5c0-27.6,16.8-46.9,46.3-46.9
			c8.8,0,17.6,1.7,24.1,6.3v12c-6.5-4.1-13.6-6.3-24.1-6.3c-21.2,0-33.9,14.1-33.9,34.9s13.1,34.6,34.6,34.6
			c8.2,0.1,16.2-1.8,23.5-5.5L206.1,94.3z"/>
		<path class="st0" d="M214.7,63.7c0-20.7,12.1-35.7,32.8-35.7s32.5,15,32.5,35.7s-12,36-32.5,36S214.7,84.4,214.7,63.7z
			 M226.3,63.7c0,13.1,6.5,25,21.2,25s21-11.9,21-25S262.3,39,247.6,39S226.4,50.6,226.3,63.7L226.3,63.7z"/>
		<path class="st0" d="M352.5,98.3h-11.9V56.7c0-12.4-5-17.9-16.3-17.9c-11,0-18.6,7.3-18.6,21.2v38.3h-11.9V29.4h11.9v11.3
			c4.3-8,12.7-12.9,21.8-12.7c15.9,0,25,11,25,29.9L352.5,98.3z"/>
		<path class="st0" d="M385.5,29.4h17.8v11h-17.8v58H374v-58h-11.2v-11H374v-7.6c0-12.8,7.2-21.5,21.9-21.5c2.7,0,5.4,0.4,8,1.1v11
			c-2.5-0.5-4.9-0.7-7.4-0.7c-7.3,0-11,4.3-11,10.5L385.5,29.4z"/>
		<path class="st0" d="M434.6,98.7c-11.3,0-18.5-5.4-18.5-18.1V0.5H428v78.7c0,6.3,4.1,8.4,9.2,8.4c1.2,0,2.3,0,3.4-0.1v10.6
			C438.7,98.6,436.6,98.8,434.6,98.7z"/>
		<path class="st0" d="M450.7,29.4h11.9V71c0,12.4,5,17.9,16.3,17.9c11,0,18.6-7.3,18.6-21.2V29.4h11.9v68.9h-11.9V87
			c-4.3,8-12.7,12.9-21.8,12.7c-15.9,0-25-11-25-29.9L450.7,29.4z"/>
		<path class="st0" d="M560.2,99.7c-25.8,0-37.1-14.9-37.1-36c0-20.8,11.6-35.7,32.5-35.7c21.2,0,29.8,14.8,29.8,35.7V69h-50.3
			c1.7,11.7,9.2,19.3,25.5,19.3c7.2,0,14.2-1.3,21-3.7v11C575.9,98.6,567.2,99.7,560.2,99.7z M534.9,58.9h38.5
			c-0.7-12.8-6.5-20.1-18.3-20.1C542.5,38.7,536.2,46.9,534.9,58.9L534.9,58.9z"/>
		<path class="st0" d="M658.1,98.3h-11.9V56.7c0-12.4-5-17.9-16.3-17.9c-11,0-18.6,7.3-18.6,21.2v38.3h-11.9V29.4h11.9v11.3
			c4.3-8,12.7-12.9,21.8-12.7c15.9,0,25,11,25,29.9L658.1,98.3z"/>
		<path class="st0" d="M723.3,96.5c-4.1,2.2-10.5,3.1-16.8,3.1c-24.5,0-36-14.9-36-36c0-20.8,11.4-35.7,36-35.7
			c5.7-0.2,11.3,0.9,16.4,3.3v11c-4.9-2.3-10.2-3.4-15.6-3.3c-17.9,0-25.2,11.3-25.2,24.7s7.4,24.8,25.5,24.8
			c5.3,0.1,10.6-0.7,15.7-2.5L723.3,96.5z"/>
		<path class="st0" d="M769.8,99.7c-25.8,0-37.1-14.9-37.1-36c0-20.8,11.6-35.7,32.5-35.7c21.2,0,29.8,14.8,29.8,35.7V69h-50.3
			c1.7,11.7,9.2,19.3,25.5,19.3c7.2,0,14.2-1.3,21-3.7v11C785.5,98.6,776.8,99.7,769.8,99.7z M744.5,58.9H783
			c-0.7-12.8-6.5-20.1-18.3-20.1C752.1,38.7,745.8,46.9,744.5,58.9L744.5,58.9z"/>
	</g>
	<g>
		<path class="st0" d="M99,68.9c-4.3-2-12.9-6.1-20.7-9.8C50.4,45.5,26.8,46.4,8.6,75.9c-1,1.7-2.2,3.6-3.2,5.2
			c-0.9,1.5-0.4,3.4,1.1,4.3l20.7,12.7c1.5,0.9,3.5,0.5,4.4-1c0,0,0,0,0,0c0.8-1.4,1.9-3.2,3.1-5.1c8.2-13.5,16.4-11.9,31.3-4.8
			L86.5,97c1.6,0.8,3.5,0.1,4.2-1.5c0,0,0-0.1,0-0.1l9.8-22.3C101.3,71.5,100.6,69.6,99,68.9z"/>
		<path class="st0" d="M103.5,15.8L82.8,3.1c-1.5-1-3.4-0.6-4.4,0.9c0,0.1-0.1,0.1-0.1,0.2c-0.8,1.4-1.9,3.2-3.1,5.1
			C67,22.8,58.8,21.1,43.9,14L23.5,4.3c-1.6-0.8-3.5-0.1-4.2,1.5c0,0,0,0.1,0,0.1L9.3,28.2c-0.7,1.6,0,3.4,1.6,4.2
			c4.3,2,12.9,6.1,20.7,9.8c27.9,13.5,51.6,12.6,69.8-16.8c1-1.7,2.2-3.6,3.2-5.2C105.4,18.7,105,16.7,103.5,15.8z"/>
	</g>
</g>
</svg>
