<?xml version="1.0" encoding="utf-8"?>
<!-- Generator: Adobe Illustrator 22.1.0, SVG Export Plug-In . SVG Version: 6.00 Build 0)  -->
<svg version="1.1" id="레이어_1" xmlns="http://www.w3.org/2000/svg" xmlns:xlink="http://www.w3.org/1999/xlink" x="0px"
	 y="0px" viewBox="0 0 800 100" style="enable-background:new 0 0 800 100;" xml:space="preserve">
<style type="text/css">
	.st0{fill:#FFA41F;}
</style>
<g id="Blue">
	<path class="st0" d="M403.8,11.9h10.5v53.1c0,14.1-6.2,23.8-20.6,23.8c-4.3,0.1-8.5-0.6-12.5-2V76.6c3.4,1.3,7.1,2,10.8,2
		c8.8,0,11.9-5.3,11.9-12.9L403.8,11.9z"/>
	<path class="st0" d="M433.3,7.8c3.6-0.3,6.7,2.4,7,6c0,0.3,0,0.6,0,0.9c0,3.8-3.1,7-7,7c-3.8,0-7-3.1-7-7c0,0,0,0,0,0
		c-0.3-3.6,2.4-6.7,6-7C432.7,7.8,433,7.8,433.3,7.8z M428.2,30.1h10v58.1h-10V30.1z"/>
	<path class="st0" d="M453.3,30.1h9.8v10.2c3.4-6.9,9.2-11.7,20.6-11V39c-12.8-1.3-20.6,2.6-20.6,14.9v34.3h-9.8V30.1z"/>
	<path class="st0" d="M530.4,77.7c-3.7,7.7-10.7,11.6-19.6,11.6c-15.4,0-23.2-13.1-23.2-30.2c0-16.4,8.1-30.2,24.4-30.2
		c8.5,0,15,3.8,18.5,11.4V30.1h10v58.1h-10L530.4,77.7z M513.5,80c8.9,0,17-5.7,17-18.6v-4.7c0-12.9-7.3-18.6-15.8-18.6
		c-11.3,0-17.1,7.4-17.1,20.9C497.5,73.1,503.1,80,513.5,80L513.5,80z"/>
	<path class="st0" d="M355.1,47.2l-43-43L307.9,0l-32.4,32.4l-14.8,14.8c-1.5,1.5-1.5,4.1,0,5.6l29.6,29.6l17.6,17.6l0,0l32.4-32.4
		l0,0l0.5-0.5l14.3-14.3C356.7,51.3,356.7,48.7,355.1,47.2z M307.9,64.8L293.2,50l14.8-14.8L322.7,50L307.9,64.8z"/>
</g>
</svg>
